<svg xmlns="http://www.w3.org/2000/svg" fill="none" viewBox="0 0 82 31">
  <path fill="#fff" d="M9.333 4.736H1.99c0 17.523-.088 21.398-1.99 22.733v3.1h3.096c.221-4.607.045-9.128 0-23.035h3.14V30.57h3.097V4.736ZM15.542 16.275h5.307v-6.89c0-3.745-1.282-5.08-3.715-5.08-2.654 0-4.689 1.593-4.689 5.856v15.801c0 3.703 1.371 5.038 4.07 5.038 2.963 0 4.379-3.1 4.29-7.19l-.132-5.167h-.62l-.132 5.037c-.089 2.756-.664 4.392-1.99 4.392-1.24 0-2.39-.474-2.39-3.574v-8.223Zm1.282-9.042c.885 0 1.371.43 1.371 3.574v4.865h-2.653V9.73c0-1.55.22-2.497 1.282-2.497ZM33.157 4.736h-9.2v25.833h3.096V7.534h3.008V30.57h3.096V4.736ZM40.485 0H36.68v1.98h3.804V0Zm1.061 0v1.98h3.804V0h-3.804Zm-.62 4.306c-2.653 0-4.688 1.593-4.688 5.855v15.801c0 3.703 1.371 5.038 4.07 5.038 2.963 0 4.379-3.1 4.29-7.19l-.133-5.167h-.619l-.132 5.037c-.089 2.756-.664 4.392-1.99 4.392-1.24 0-2.39-.473-2.39-3.573v-8.224h5.308V9.386c0-3.746-1.282-5.08-3.715-5.08Zm-1.592 11.366V9.731c0-1.55.222-2.498 1.283-2.498.885 0 1.371.43 1.371 3.574v4.865h-2.654ZM53.22 16.49l4.157-11.754H53.66l-1.017 9.86h-.486l-1.062-4.564-1.46-5.296h-3.494l4.246 12.314-4.423 13.52h3.715l1.372-11.626h.398l1.061 5.64 1.46 5.985h3.494L53.22 16.49ZM68.751 4.736h-3.14l-3.716 20.537h-.62l.62-9.946.31-10.591H59.02v25.833h3.14l3.672-20.538h.663l-.619 9.946-.265 10.592h3.14V4.736ZM78.174 4.736v12.313h-3.23V4.736h-3.096v25.833h3.097V17.911h3.229v12.658h3.096V4.736h-3.096Z"/>
</svg>
